<?xml version="1.0" standalone="no"?>
<!DOCTYPE svg PUBLIC "-//W3C//DTD SVG 20010904//EN"
 "http://www.w3.org/TR/2001/REC-SVG-20010904/DTD/svg10.dtd">
<svg version="1.0" xmlns="http://www.w3.org/2000/svg"
 width="512.000000pt" height="512.000000pt" viewBox="0 0 512.000000 512.000000"
 preserveAspectRatio="xMidYMid meet">

<g transform="translate(0.000000,512.000000) scale(0.100000,-0.100000)"
fill="#000000" stroke="none">
<path d="M0 3788 l0 -1333 79 80 c43 44 619 644 1280 1333 l1201 1252 -1280 0
-1280 0 0 -1332z"/>
<path d="M1428 3627 l-1427 -1492 -1 -1065 0 -1065 2555 2555 c1405 1405 2555
2556 2555 2557 0 2 -507 3 -1127 2 l-1128 0 -1427 -1492z"/>
<path d="M1730 1478 c-525 -534 -1067 -1086 -1204 -1225 l-248 -253 2422 0
2422 0 -1213 1223 c-667 672 -1216 1223 -1219 1225 -3 1 -435 -435 -960 -970z"/>
</g>
</svg>
